<?xml version="1.0" encoding="UTF-8" standalone="no"?><!DOCTYPE svg PUBLIC "-//W3C//DTD SVG 1.1//EN" "http://www.w3.org/Graphics/SVG/1.1/DTD/svg11.dtd"><svg width="100%" height="100%" viewBox="0 0 8684 8684" version="1.1" xmlns="http://www.w3.org/2000/svg" xmlns:xlink="http://www.w3.org/1999/xlink" xml:space="preserve" xmlns:serif="http://www.serif.com/" style="fill-rule:evenodd;clip-rule:evenodd;stroke-linejoin:round;stroke-miterlimit:2;"><g><path d="M8631.471,2196.764l0,4289.804c0,1183.804 -961.098,2144.902 -2144.902,2144.902l-4289.804,0c-1183.804,0 -2144.902,-961.098 -2144.902,-2144.902l0,-4289.804c0,-1183.804 961.098,-2144.902 2144.902,-2144.902l4289.804,0c1183.804,0 2144.902,961.098 2144.902,2144.902Zm-214.119,107.059c0,-1124.716 -913.127,-2037.843 -2037.843,-2037.843l-4075.686,0c-1124.716,0 -2037.843,913.127 -2037.843,2037.843l0,4075.686c0,1124.716 913.127,2037.843 2037.843,2037.843l4075.686,0c1124.716,0 2037.843,-913.127 2037.843,-2037.843l0,-4075.686Z" style="fill:#7782f7;"/><g><g><path d="M4394.286,5540.709c-36.412,49.041 -78.299,90.509 -126.289,126.289c-201.432,149.653 -395.498,231.529 -652.497,231.529c-341.401,33.047 -717.324,7.365 -1073.461,21.05c-333.404,-18.943 -765.734,314.673 -589.353,673.542c-123.552,12.841 -244.158,36.412 -357.819,84.195c91.56,115.767 309.829,116.399 463.063,126.289c42.938,2.738 97.243,17.681 126.289,21.05c298.675,8.421 583.877,42.095 884.026,42.095c113.448,0 239.106,11.578 336.774,21.05l1536.524,0c182.276,0 364.977,3.577 547.253,0c36.836,-3.577 96.824,-19.994 147.339,-21.05c201.22,-4.001 388.34,-13.048 589.353,-21.05c25.258,-3.577 67.146,-19.575 105.24,-21.05c258.05,-13.68 517.999,-21.681 757.737,-105.24c-55.148,-129.447 -254.261,-106.502 -378.868,-126.289c484.952,-568.934 315.724,-1460.119 315.724,-2189.016c-4.208,-44.201 -21.05,-110.084 -21.05,-168.384c-4.42,-366.452 -140.601,-767.209 -463.063,-968.221c77.249,-323.301 126.709,-584.933 394.655,-784.046c268.153,-199.118 58.725,-680.7 -268.365,-689.329c-327.09,-8.628 -625.764,297.2 -420.963,631.447c47.359,65.883 85.877,55.355 84.195,126.289c-2.314,436.542 -379.081,583.038 -732.06,657.125c-352.979,74.092 -755.63,-390.866 -504.527,-715.011c251.104,-324.352 -13.048,-777.524 -432.961,-685.54c-419.913,91.979 -397.6,685.54 -14.311,785.521c1.894,512.316 -2.738,1094.299 0,1599.669c2.738,505.37 46.939,944.226 -252.579,1347.09m505.158,-3620.301c85.877,21.257 225.215,251.528 103.557,271.942c-121.869,20.206 -251.948,-14.523 -349.61,-110.084c-97.874,-95.349 134.498,-189.434 246.052,-161.863m1831.198,0c70.303,16.418 252.16,213.849 131.553,257.843c-120.819,43.782 -234.898,8.421 -346.877,-84.614c-111.978,-93.242 75.354,-205.852 215.324,-173.229m-1115.556,1852.248c233.848,62.725 115.136,560.306 -126.289,463.063c-241.425,-97.243 -124.183,-530.204 126.289,-463.063m757.737,0c222.482,59.775 142.707,528.734 -88.822,467.69c-231.741,-61.25 -173.436,-537.993 88.822,-467.69Z" style="fill:#7782f7;fill-rule:nonzero;"/></g><g><path d="M4078.563,5540.709c43.57,-36.412 111.766,-104.82 147.339,-147.339c106.715,-149.441 161.438,-321.195 168.384,-505.158c5.052,-132.185 6.734,-314.249 0,-442.013c-6.734,-127.765 22.732,-331.722 0,-442.013c-22.732,-110.291 63.988,-366.24 -21.05,-420.963c-972.01,226.902 -1680.07,1165.233 -1873.293,2104.827c507.052,-77.456 1143.971,163.126 1578.619,-147.339Z" style="fill:#7782f7;fill-rule:nonzero;"/></g></g></g></svg>