<?xml version="1.0" encoding="UTF-8" standalone="no"?><!DOCTYPE svg PUBLIC "-//W3C//DTD SVG 1.1//EN" "http://www.w3.org/Graphics/SVG/1.1/DTD/svg11.dtd"><svg width="100%" height="100%" viewBox="0 0 8684 8684" version="1.1" xmlns="http://www.w3.org/2000/svg" xmlns:xlink="http://www.w3.org/1999/xlink" xml:space="preserve" xmlns:serif="http://www.serif.com/" style="fill-rule:evenodd;clip-rule:evenodd;stroke-linejoin:round;stroke-miterlimit:2;"><g><g><path d="M772.571,2607.108l0,3333.333c0,578.646 258.333,1008.679 742.188,1341.146c483.854,332.292 1160.762,298.612 1775.175,290.8c614.408,-7.812 1454.688,-4.342 2065.971,0c611.283,4.342 1309.029,47.917 1784.2,-281.771c475.175,-329.513 750.521,-747.917 750.521,-1315.45l0,-3385.417c0,-888.021 -808.679,-1579.862 -1666.667,-1579.862l-3871.529,0c-864.238,0 -1579.863,742.708 -1579.863,1597.221m6909.721,-17.363c52.604,543.229 17.708,1125.867 17.363,1684.029c-0.346,558.158 35.242,1157.988 -17.363,1701.388c0,321.7 -134.029,619.967 -329.862,868.054c-46.008,58.158 -101.042,109.029 -156.25,156.25c-267.533,228.646 -618.575,364.583 -972.221,364.583c-609.029,59.029 -1268.75,17.362 -1892.363,17.362c-623.612,0 -1284.55,41.492 -1892.362,-17.362c-751.388,0 -1458.333,-615.45 -1458.333,-1388.888c-53.471,-552.429 -17.363,-1152.083 -17.363,-1718.75c0,-566.667 -35.938,-1167.708 17.363,-1718.75c0,-507.637 278.821,-889.929 730.554,-1144.446c451.562,-254.688 1143.229,-193.229 1700,-192.362c556.771,0.867 1317.708,0.696 1875,0c557.292,-0.696 1234.721,-63.542 1685.417,206.946c450.521,270.658 710.417,672.571 710.417,1181.946l0.004,0Z" style="fill:#7782f7;fill-rule:nonzero;"/></g><g><path d="M3967.013,5280.721c-30.033,40.45 -64.583,74.654 -104.167,104.167c-166.146,123.438 -326.217,190.971 -538.196,190.971c-281.596,27.258 -591.667,6.075 -885.417,17.362c-275,-15.625 -631.596,259.55 -486.112,555.554c-101.908,10.592 -201.388,30.033 -295.138,69.446c75.521,95.488 255.554,96.008 381.946,104.167c35.417,2.258 80.208,14.583 104.167,17.362c246.354,6.946 481.596,34.721 729.167,34.721c93.575,0 197.221,9.55 277.779,17.363l1267.362,0c150.346,0 301.042,2.95 451.388,0c30.383,-2.95 79.862,-16.492 121.529,-17.363c165.971,-3.3 320.312,-10.762 486.113,-17.362c20.833,-2.95 55.383,-16.146 86.804,-17.363c212.846,-11.283 427.258,-17.883 625,-86.804c-45.488,-106.771 -209.721,-87.846 -312.5,-104.167c400,-469.271 260.417,-1204.342 260.417,-1805.554c-3.471,-36.458 -17.363,-90.8 -17.363,-138.887c-3.646,-302.258 -115.971,-632.812 -381.946,-798.613c63.717,-266.667 104.513,-482.467 325.521,-646.7c221.179,-164.238 48.438,-561.458 -221.354,-568.575c-269.792,-7.117 -516.146,245.137 -347.221,520.833c39.062,54.342 70.833,45.658 69.446,104.167c-1.908,360.071 -312.675,480.904 -603.821,542.012c-291.146,61.113 -623.263,-322.396 -416.146,-589.758c207.117,-267.533 -10.763,-641.321 -357.117,-565.45c-346.354,75.867 -327.95,565.45 -11.804,647.917c1.562,422.571 -2.258,902.604 0,1319.446c2.258,416.842 38.717,778.821 -208.333,1111.112m416.667,-2986.113c70.833,17.533 185.762,207.467 85.417,224.304c-100.521,16.667 -207.812,-11.979 -288.367,-90.8c-80.729,-78.646 110.938,-156.25 202.95,-133.508m1510.417,0c57.988,13.542 207.988,176.387 108.508,212.675c-99.654,36.113 -193.75,6.946 -286.112,-69.792c-92.363,-76.908 62.154,-169.792 177.604,-142.883m-920.137,1527.779c192.883,51.738 94.967,462.154 -104.167,381.946c-199.133,-80.208 -102.429,-437.325 104.167,-381.946m625,0c183.508,49.304 117.708,436.113 -73.263,385.763c-191.146,-50.521 -143.054,-443.75 73.263,-385.763Z" style="fill:#7782f7;fill-rule:nonzero;"/></g><g><path d="M3706.596,5280.721c35.938,-30.033 92.188,-86.458 121.529,-121.529c88.021,-123.263 133.158,-264.929 138.887,-416.667c4.167,-109.029 5.554,-259.2 0,-364.583c-5.554,-105.383 18.75,-273.613 0,-364.583c-18.75,-90.971 52.779,-302.083 -17.363,-347.221c-801.738,187.154 -1385.763,961.113 -1545.138,1736.113c418.229,-63.887 943.575,134.55 1302.083,-121.529Z" style="fill:#7782f7;fill-rule:nonzero;"/></g></g></svg>